<svg xmlns="http://www.w3.org/2000/svg" xmlns:xlink="http://www.w3.org/1999/xlink" viewBox="0 0 322.77 56.3"><defs><style>.cls-1{fill:none;}.cls-2{clip-path:url(#clip-path);}.cls-3{clip-path:url(#clip-path-2);}.cls-4{fill:#bfe5ee;}.cls-5{fill:#9dd9e5;}.cls-6{fill:#81cde0;}.cls-7{fill:#63c2d2;}.cls-8{fill:#42a1bb;}.cls-9{fill:#2c869b;}.cls-10{fill:#006480;}.cls-11{clip-path:url(#clip-path-3);}.cls-12{fill:#4d4d4d;}</style><clipPath id="clip-path"><rect class="cls-1" x="53.16" y="18.42" width="279.83" height="44.94"/></clipPath><clipPath id="clip-path-2"><polygon class="cls-1" points="92.16 25.53 82.8 25.53 76.39 31.94 69.99 25.53 69.99 25.53 63.37 25.53 63.37 56.26 69.99 56.26 69.99 34.88 71.72 36.62 71.72 36.62 76.39 41.3 76.39 41.29 76.41 41.31 81.09 36.63 81.07 36.62 92.16 25.53"/></clipPath><clipPath id="clip-path-3"><polygon class="cls-1" points="96.27 36.67 107.4 25.54 98.05 25.54 82.86 40.73 82.85 40.73 82.85 40.73 82.85 40.73 82.85 40.73 82.85 56.25 89.47 56.25 89.47 43.47 91.5 41.44 101.44 56.25 109.4 56.25 96.27 36.67"/></clipPath></defs><title>MK logo</title><g id="Layer_2" data-name="Layer 2"><g id="Layer_1-2" data-name="Layer 1"><g class="cls-2"><g class="cls-3"><path class="cls-4" d="M169.68,4.49c-22.27,3.1-32.84,1.67-45.89-2.42S102.94.36,87.8,5.7,51.82,2,36.15,2,11.08,7.41,0,7.41V18.77H169.62Z"/><path class="cls-5" d="M170.74,14.11A35.52,35.52,0,0,0,153,9.37c-7.87.16-9.76,3.22-19,3.91-9.69.74-10.95-2.42-21.11-2.11-11.69.37-12.25,4.59-22,4.56-12,0-13.72-6.48-25.54-6.54-10.92,0-12.08,5.44-22.88,5.18S28.83,8.63,18.4,8.57A34.77,34.77,0,0,0,1.08,13.5V24.82H170.76Z"/><path class="cls-6" d="M169.53,17.93c-8.14-3.42-15.16-4.5-20.93-3.93-8.23.81-9.55,4.58-17.38,4.89-9,.37-12-4.41-20.81-4.05s-10,5.29-18.23,5.49c-9.1.22-11.69-5.74-21.37-5.85-10.06-.11-13.58,6.25-23.2,5.85-7.19-.3-14.28-5-21.92-6.25-5.93-1-9.64.51-25.69,6.85v9.82H169.53Z"/><path class="cls-7" d="M169.68,30.51c-5.79-4.76-14.35-10.13-24.06-9.62-10.06.54-12.16,7-23,7.81-13.4,1.06-17.43-8.18-30.57-7.23-12.6.91-15.14,7.48-25.34,6.71s-12-7.9-21.42-8c-9-.1-11.67,6.46-21.68,7.51-5.73.6-13.44.78-23.61-7.82V36.4H169.63Z"/><path class="cls-8" d="M0,28.52c5.2,2.8,12.37,5.72,20.3,4.93s9.17-4.52,16.8-5.08c10.63-.78,13.42,6.09,24.56,5.94,10.06-.14,10.79-5.8,21.43-6.31,11.21-.55,13.38,5.58,25.24,5.32,10.77-.25,11.47-5.36,21.78-5.2s13.29,5.34,23.77,5.32a34.65,34.65,0,0,0,15.65-4v13.7H0Z"/><path class="cls-9" d="M.18,39.49a35.55,35.55,0,0,1,17.76-4.73c7.87.16,9.76,3.22,19,3.92,9.69.73,11-2.42,21.11-2.11,11.69.36,12.25,4.58,22,4.56,12,0,13.71-6.49,25.53-6.54,10.92-.05,12.08,5.43,22.88,5.18S141.92,34,152.36,34a33.44,33.44,0,0,1,17.17,4.93V50.19H.15Z"/><path class="cls-10" d="M169.53,47.66c-12.66-5-22.51-5.67-29-5.39-13,.57-16.21,5-28.31,4.49-12.62-.56-14.8-5.7-25.85-5.09-9.64.53-10.21,4.55-19.89,4.79-10,.26-12.25-4-22.17-3.49-9.19.46-9.69,4.21-17.43,3.89-7.9-.32-11-4.39-20.14-4.19a31.42,31.42,0,0,0-6.77.9V56.29H169.53Z"/></g><g class="cls-11"><path class="cls-4" d="M164.29,7.9c-20.81,2.9-30.68,1.56-42.88-2.27S101.92,4,87.77,9,54.15,5.56,39.52,5.56,16.08,10.63,5.73,10.63V21.24h158.5Z"/><path class="cls-5" d="M164.27,15.45A33.29,33.29,0,0,0,147.67,11c-7.35.16-9.12,3-17.75,3.66-9,.69-10.23-2.26-19.72-2C99.27,13.05,98.75,17,89.64,17c-11.23,0-12.81-6.06-23.86-6.11-10.2,0-11.28,5.08-21.38,4.84s-12.73-5.36-22.48-5.42A32.47,32.47,0,0,0,5.73,14.89V25.46H164.29Z"/><path class="cls-6" d="M164.15,20.46c-7.6-3.2-14.17-4.21-19.56-3.68-7.69.76-8.92,4.28-16.24,4.58-8.41.34-11.19-4.13-19.45-3.79s-9.35,4.94-17,5.13c-8.51.2-10.92-5.36-20-5.47-9.4-.1-12.69,5.84-21.68,5.47-6.72-.28-13.34-4.64-20.48-5.84-5.54-.93-9,.48-24,6.4v9.17H164.15Z"/><path class="cls-7" d="M164.29,32.22c-5.41-4.45-13.41-9.48-22.48-9-9.4.5-11.37,6.5-21.49,7.3-12.53,1-16.3-7.64-28.57-6.76C80,24.61,77.6,30.76,68.07,30s-11.25-7.39-20-7.49c-8.41-.09-10.9,6.05-20.25,7-5.37.56-12.57.72-22.07-7.31V37.71H164.24Z"/><path class="cls-8" d="M5.73,30.35C10.59,33,17.29,35.7,24.7,35s8.56-4.22,15.7-4.75c9.94-.72,12.54,5.7,22.94,5.55,9.41-.13,10.1-5.41,20-5.9,10.47-.51,12.5,5.22,23.58,5,10.06-.22,10.72-5,20.35-4.85s12.42,5,22.21,5a32.49,32.49,0,0,0,14.63-3.7v12.8H5.73Z"/><path class="cls-9" d="M5.89,40.6A33.23,33.23,0,0,1,22.5,36.18c7.35.15,9.12,3,17.74,3.67,9,.68,10.24-2.27,19.73-2,10.92.33,11.45,4.28,20.55,4.25,11.24,0,12.82-6.06,23.87-6.11,10.2,0,11.28,5.08,21.37,4.84s12.6-5.36,22.34-5.42a31.22,31.22,0,0,1,16.05,4.61V50.6H5.87Z"/><path class="cls-10" d="M164.15,48.24c-11.83-4.71-21-5.3-27.07-5-12.19.53-15.15,4.71-26.45,4.2-11.8-.53-13.84-5.33-24.16-4.76-9,.49-9.54,4.25-18.58,4.48-9.38.24-11.45-3.73-20.73-3.27-8.58.43-9,3.94-16.28,3.64-7.39-.3-10.31-4.11-18.83-3.92a29.94,29.94,0,0,0-6.32.84V56.3H164.15Z"/></g><path class="cls-12" d="M117.92,49.61V30.3H122l5.43,13.22,5.24-13.22h3.79V49.61h-3.5V34.09l-6.53,16.23-6.83-16.23V49.61Z"/><path class="cls-12" d="M141.35,30.3h3.58V42c0,2.27.32,3.85.95,4.74A3.7,3.7,0,0,0,149.11,48a3.66,3.66,0,0,0,3.21-1.34c.63-.89,1-2.47,1-4.74V30.3H155V42.61q0,3.73-1.69,5.61a6.55,6.55,0,0,1-5.11,1.87,7.8,7.8,0,0,1-2.91-.55A6.21,6.21,0,0,1,143,48a5.47,5.47,0,0,1-1.26-2.12,11.51,11.51,0,0,1-.37-3.31Z"/><path class="cls-12" d="M159.75,49.61V30.3h3.58V49.61Zm3.78-9.67,7.14-9.64h2.21l-6,8.28,6.61,11h-4.23Z"/><path class="cls-12" d="M175.2,30.3h3.59V42c0,2.27.31,3.85,1,4.74a4.53,4.53,0,0,0,6.43,0c.63-.89,1-2.47,1-4.74V30.3h1.72V42.61a8.13,8.13,0,0,1-1.7,5.61,6.53,6.53,0,0,1-5.1,1.87,7.72,7.72,0,0,1-2.91-.55,6.13,6.13,0,0,1-2.29-1.5,5.35,5.35,0,0,1-1.26-2.12,11.46,11.46,0,0,1-.38-3.31Z"/><path class="cls-12" d="M193.55,49.61V30.3h4.06L203,43.52l5.24-13.22h3.78V49.61h-3.49V34.09L202,50.32l-6.83-16.23V49.61Z"/><path class="cls-12" d="M225.67,49.61V30.3h4.06l5.43,13.22L240.4,30.3h3.79V49.61h-3.5V34.09l-6.53,16.23-6.83-16.23V49.61Z"/><path class="cls-12" d="M246.5,49.61l7.93-19.7,8.24,19.7h-3.81l-2-5.14h-6.66l-2,5.14Zm4.2-6.35h5.62l-2.82-7Z"/><path class="cls-12" d="M265,49.61V30.3h6.33a8.78,8.78,0,0,1,5.44,1.43A5,5,0,0,1,278.65,36a4.23,4.23,0,0,1-1.31,3.28,5.8,5.8,0,0,1-3.72,1.33l5.11,9h-4l-5.19-9.79a8.43,8.43,0,0,0,4.31-1.13,3.36,3.36,0,0,0,1.25-2.88,4,4,0,0,0-1.24-3.21,5.71,5.71,0,0,0-3.75-1.06h-1.48V49.61Z"/><path class="cls-12" d="M285.93,49.61h-3.56V30.3h3.56Z"/><path class="cls-12" d="M290.92,49.61V30.3h3.28l10,13.33V30.3h1.72V49.61H304.2L292.64,34.23V49.61Z"/><path class="cls-12" d="M310.83,49.61V30.3h11.94v1.45h-8.36v7.06h7.77v1.46h-7.77v7.9h8.36v1.44Z"/></g></g></g></svg>